<svg width="57" height="53" viewBox="0 0 57 53" fill="none" xmlns="http://www.w3.org/2000/svg">
<path d="M2.91211 52.0017L8.35555 37.6662L9.84663 46.297L12.9985 49.5463V50.2398V51.8415H10.597L2.91211 52.0017Z" fill="black"/>
<path d="M37.654 50.2398L32.6909 40.7896L38.7748 32.7809L48.7811 50.2398H37.654Z" fill="black"/>
<path d="M22.8447 22.2094L18.6821 33.4216L24.5102 31.1019L21.0698 36.625L18.0117 34.6379L10.4619 44.3857L10.1752 42.0921C10.1752 42.0921 9.48883 36.5983 8.74169 36.625C1.313 27.4818 4.32634 15.2496 6.67448 10.2765C6.93065 6.43229 10.2501 7.44673 11.8778 8.43446C12.0379 7.44673 12.6302 5.10285 13.7189 3.62926C14.8076 2.15567 15.4534 3.28222 15.6401 4.0297L13.7189 8.99508L17.6379 5.47439C16.9539 5.82979 16.1028 6.27171 17.6414 5.47125C17.668 5.45741 17.6942 5.44423 17.7201 5.4317C19.2503 4.68979 19.4812 6.20667 19.4025 7.07299L15.1598 10.9972C16.0564 12.0864 15.8536 13.2664 15.6401 13.7202C4.62519 20.96 7.26152 29.7109 9.95656 33.1813L18.3619 10.9972L26.2068 10.6769C28.3682 13.6401 31.0098 19.4865 31.0098 19.4865L33.398 23.9344L28.6196 31.293L22.8447 22.2094Z" fill="black"/>
<path d="M10.597 51.8415L2.91211 52.0017L8.35555 37.6662L9.84663 46.297M10.597 51.8415V50.6402M10.597 51.8415H12.9985V49.5463L9.84663 46.297M17.6414 5.47125C17.668 5.45741 17.6942 5.44423 17.7201 5.4317M17.6414 5.47125C16.0404 6.30415 17.0268 5.79192 17.7201 5.4317M17.6414 5.47125L13.7189 8.99508L15.6401 4.0297C15.4534 3.28222 14.8076 2.15567 13.7189 3.62926C12.6302 5.10285 12.0379 7.44673 11.8778 8.43447C10.2501 7.44673 6.93065 6.43229 6.67449 10.2765C4.32634 15.2496 1.313 27.4818 8.74169 36.625C9.48883 36.5983 10.1752 42.0921 10.1752 42.0921L10.4619 44.3857L18.0117 34.6379L21.0698 36.625L24.5102 31.1019L18.6821 33.4216L22.8447 22.2094L28.6196 31.293L33.398 23.9344L31.0098 19.4865C31.0098 19.4865 28.3682 13.6401 26.2068 10.6769L18.3619 10.9972L9.95656 33.1813C7.26152 29.7109 4.62519 20.96 15.6401 13.7202C15.8536 13.2664 16.0564 12.0864 15.1598 10.9972L19.4025 7.07299C19.4812 6.20667 19.2503 4.68979 17.7201 5.4317M12.9985 50.2398L10.597 50.6402M10.597 50.6402L9.84663 46.297M32.6909 40.7896L37.654 50.2398H48.7811L38.7748 32.7809L32.6909 40.7896Z" stroke="black" stroke-width="0.155113"/>
<path d="M44.1017 30.9108L43.7194 18.9649L32.6082 20.8955L35.4805 23.5626L29.3256 32.4872L25.3249 31.2562L21.2217 37.7188L18.5546 35.7698L9.21973 47.3614L13.138 51.8233L15.7183 48.0006L20.0188 42.3788L21.8346 43.9079L26.2482 38.0266L30.5566 40.7962L40.7121 27.871L44.1017 30.9108Z" fill="black" stroke="black" stroke-width="0.205162"/>
<path d="M34.0103 18.1814L32.7295 10.6533L34.1704 10.1727L34.8909 17.781L34.0103 18.1814Z" fill="black" stroke="black" stroke-width="0.155113"/>
<path d="M37.6666 14.9692L38.0309 10.4182L40.4194 10.0125L38.4671 14.9345L37.6666 14.9692Z" fill="black"/>
<path d="M42.6852 16.0369L46.0427 6.95549L48.3364 8.06557L44.149 16.5026L42.6852 16.0369Z" fill="black"/>
<path d="M46.2646 19.0565L45.6749 18.4018L55.2892 12.6189L56.0407 15.1563L46.2646 19.0565Z" fill="black"/>
<path d="M47.0977 23.4801L47.2987 22.5643L55.0048 24.5739L54.6797 26.3265L47.0977 23.4801Z" fill="black"/>
<path d="M46.5945 26.6765L46.8085 26.0625L46.8821 25.9082L54.4787 30.9459L53.1896 32.6646L46.5945 26.6765Z" fill="black"/>
<path d="M37.6666 14.9692L38.0309 10.4182L40.4194 10.0125L38.4671 14.9345L37.6666 14.9692Z" stroke="black" stroke-width="0.155113"/>
<path d="M42.6852 16.0369L46.0427 6.95549L48.3364 8.06557L44.149 16.5026L42.6852 16.0369Z" stroke="black" stroke-width="0.155113"/>
<path d="M46.2646 19.0565L45.6749 18.4018L55.2892 12.6189L56.0407 15.1563L46.2646 19.0565Z" stroke="black" stroke-width="0.155113"/>
<path d="M47.0977 23.4801L47.2987 22.5643L55.0048 24.5739L54.6797 26.3265L47.0977 23.4801Z" stroke="black" stroke-width="0.155113"/>
<path d="M46.5945 26.6765L46.8085 26.0625L46.8821 25.9082L54.4787 30.9459L53.1896 32.6646L46.5945 26.6765Z" stroke="black" stroke-width="0.155113"/>
<path d="M1 50.0904L6.44344 35.7548L7.93452 44.3857C7.90949 45.0851 8.50482 47.1732 11.0864 49.9302H8.68485L1 50.0904Z" fill="url(#paint0_linear_65_211)"/>
<path d="M35.7419 48.3284L30.7788 38.8782L36.8626 30.8695L46.869 48.3284H35.7419Z" fill="url(#paint1_linear_65_211)"/>
<path d="M20.9326 20.2981L16.77 31.5102L16.3225 32.7554V33.0727L14.5248 37.9371L15.3708 38.8782L18.0145 40.5808C17.1685 43.3303 14.8209 48.6812 12.1983 48.089C9.57576 47.4968 8.67323 44.0991 8.54979 42.4743L8.26309 40.1807C8.26309 40.1807 7.57672 34.687 6.82958 34.7137C-0.599107 25.5704 2.41423 13.3383 4.76238 8.36511C5.01854 4.52094 8.33797 5.53537 9.96566 6.52311C10.1258 5.53537 10.7181 3.1915 11.8068 1.71791C12.8955 0.244318 13.5413 1.37087 13.728 2.11834L11.8068 7.08372L15.7258 3.56304C15.0418 3.91843 14.1907 4.36035 15.7293 3.55989C15.7559 3.54606 15.7821 3.53287 15.808 3.52034C17.3382 2.77844 17.5691 4.29531 17.4904 5.16163L13.2477 9.08589C14.1443 10.1751 13.9415 11.355 13.728 11.8088C2.71308 19.0487 5.34941 27.7995 8.04445 31.27L16.4498 9.08589L24.2947 8.76554C26.4561 11.7288 29.0977 17.5751 29.0977 17.5751L31.4859 22.023L26.7075 29.3817L20.9326 20.2981Z" fill="url(#paint2_linear_65_211)"/>
<path d="M15.7293 3.55989C15.7559 3.54606 15.7821 3.53287 15.808 3.52034M15.7293 3.55989C14.1283 4.3928 15.1147 3.88057 15.808 3.52034M15.7293 3.55989L11.8068 7.08372L13.728 2.11834C13.5413 1.37087 12.8955 0.244318 11.8068 1.71791C10.7181 3.1915 10.1258 5.53537 9.96566 6.52311C8.33797 5.53537 5.01854 4.52094 4.76238 8.36511C2.41423 13.3383 -0.599107 25.5704 6.82958 34.7137C7.57672 34.687 8.26309 40.1807 8.26309 40.1807L8.54979 42.4743C8.67323 44.0991 9.57576 47.4968 12.1983 48.089C14.8209 48.6812 17.1685 43.3303 18.0145 40.5808L15.3708 38.8782L14.5248 37.9371L16.3225 33.0727V32.7554L16.77 31.5102L20.9326 20.2981L26.7075 29.3817L31.4859 22.023L29.0977 17.5751C29.0977 17.5751 26.4561 11.7288 24.2947 8.76554L16.4498 9.08589L8.04445 31.27C5.34941 27.7995 2.71308 19.0487 13.728 11.8088C13.9415 11.355 14.1443 10.1751 13.2477 9.08589L17.4904 5.16163C17.5691 4.29531 17.3382 2.77844 15.808 3.52034M6.44344 35.7548L1 50.0904L8.68485 49.9302H11.0864C8.50482 47.1732 7.90949 45.0851 7.93452 44.3857L6.44344 35.7548ZM30.7788 38.8782L35.7419 48.3284H46.869L36.8626 30.8695L30.7788 38.8782Z" stroke="black" stroke-width="0.155113"/>
<path d="M41.998 28.9994L41.6157 17.0536L30.5045 18.9842L33.3768 21.6513L27.2219 30.5758L23.2212 29.3449L19.118 35.8075L17.7844 34.8329L10.4649 43.9221L13.0496 47.4094L13.6146 46.0892L17.9151 40.4674L19.7309 41.9965L24.1445 36.1152L28.4529 38.8849L38.6084 25.9597L41.998 28.9994Z" fill="url(#paint3_linear_65_211)"/>
<path d="M32.0972 16.2701L30.8164 8.74192L32.2573 8.26139L32.9778 15.8696L32.0972 16.2701Z" fill="url(#paint4_linear_65_211)" stroke="black" stroke-width="0.155113"/>
<path d="M35.7544 13.0578L36.1188 8.50687L38.5073 8.10112L36.555 13.0232L35.7544 13.0578Z" fill="url(#paint5_linear_65_211)"/>
<path d="M40.7731 14.1255L44.1306 5.04415L46.4243 6.15424L42.2369 14.5913L40.7731 14.1255Z" fill="url(#paint6_linear_65_211)"/>
<path d="M44.3525 17.1452L43.7628 16.4905L53.3771 10.7076L54.1286 13.245L44.3525 17.1452Z" fill="url(#paint7_linear_65_211)"/>
<path d="M45.1856 21.5687L45.3866 20.653L53.0927 22.6626L52.7676 24.4151L45.1856 21.5687Z" fill="url(#paint8_linear_65_211)"/>
<path d="M44.6824 24.7652L44.8964 24.1512L44.9699 23.9968L52.5665 29.0346L51.2775 30.7533L44.6824 24.7652Z" fill="url(#paint9_linear_65_211)"/>
<defs>
<linearGradient id="paint0_linear_65_211" x1="21.61" y1="8.75044" x2="25.1725" y2="37.416" gradientUnits="userSpaceOnUse">
<stop stop-color="#FFF7B3"/>
<stop offset="0.255" stop-color="#FEFFEB"/>
<stop offset="0.495" stop-color="#F4DD6A"/>
<stop offset="0.73" stop-color="#FFFEC2"/>
<stop offset="1" stop-color="#FFB726"/>
</linearGradient>
<linearGradient id="paint1_linear_65_211" x1="21.61" y1="8.75044" x2="25.1725" y2="37.416" gradientUnits="userSpaceOnUse">
<stop stop-color="#FFF7B3"/>
<stop offset="0.255" stop-color="#FEFFEB"/>
<stop offset="0.495" stop-color="#F4DD6A"/>
<stop offset="0.73" stop-color="#FFFEC2"/>
<stop offset="1" stop-color="#FFB726"/>
</linearGradient>
<linearGradient id="paint2_linear_65_211" x1="21.61" y1="8.75044" x2="25.1725" y2="37.416" gradientUnits="userSpaceOnUse">
<stop stop-color="#FFF7B3"/>
<stop offset="0.255" stop-color="#FEFFEB"/>
<stop offset="0.495" stop-color="#F4DD6A"/>
<stop offset="0.73" stop-color="#FFFEC2"/>
<stop offset="1" stop-color="#FFB726"/>
</linearGradient>
<linearGradient id="paint3_linear_65_211" x1="26.7573" y1="17.6734" x2="27.345" y2="39.7058" gradientUnits="userSpaceOnUse">
<stop stop-color="#FFF7B3"/>
<stop offset="0.255" stop-color="#FEFFEB"/>
<stop offset="0.495" stop-color="#F4DD6A"/>
<stop offset="0.73" stop-color="#FFFEC2"/>
<stop offset="1" stop-color="#FFB726"/>
</linearGradient>
<linearGradient id="paint4_linear_65_211" x1="30.8096" y1="-4.04518" x2="35.4403" y2="17.1905" gradientUnits="userSpaceOnUse">
<stop stop-color="#FFF7B3"/>
<stop offset="0.255" stop-color="#FEFFEB"/>
<stop offset="0.495" stop-color="#F4DD6A"/>
<stop offset="0.73" stop-color="#FFFEC2"/>
<stop offset="1" stop-color="#FFB726"/>
</linearGradient>
<linearGradient id="paint5_linear_65_211" x1="55.4495" y1="8.11594" x2="46.3351" y2="25.1985" gradientUnits="userSpaceOnUse">
<stop stop-color="#FFF7B3"/>
<stop offset="0.255" stop-color="#FEFFEB"/>
<stop offset="0.495" stop-color="#F4DD6A"/>
<stop offset="0.73" stop-color="#FFFEC2"/>
<stop offset="1" stop-color="#FFB726"/>
</linearGradient>
<linearGradient id="paint6_linear_65_211" x1="55.4495" y1="8.11594" x2="46.3351" y2="25.1985" gradientUnits="userSpaceOnUse">
<stop stop-color="#FFF7B3"/>
<stop offset="0.255" stop-color="#FEFFEB"/>
<stop offset="0.495" stop-color="#F4DD6A"/>
<stop offset="0.73" stop-color="#FFFEC2"/>
<stop offset="1" stop-color="#FFB726"/>
</linearGradient>
<linearGradient id="paint7_linear_65_211" x1="55.4495" y1="8.11594" x2="46.3351" y2="25.1985" gradientUnits="userSpaceOnUse">
<stop stop-color="#FFF7B3"/>
<stop offset="0.255" stop-color="#FEFFEB"/>
<stop offset="0.495" stop-color="#F4DD6A"/>
<stop offset="0.73" stop-color="#FFFEC2"/>
<stop offset="1" stop-color="#FFB726"/>
</linearGradient>
<linearGradient id="paint8_linear_65_211" x1="55.4495" y1="8.11594" x2="46.3351" y2="25.1985" gradientUnits="userSpaceOnUse">
<stop stop-color="#FFF7B3"/>
<stop offset="0.255" stop-color="#FEFFEB"/>
<stop offset="0.495" stop-color="#F4DD6A"/>
<stop offset="0.73" stop-color="#FFFEC2"/>
<stop offset="1" stop-color="#FFB726"/>
</linearGradient>
<linearGradient id="paint9_linear_65_211" x1="55.4495" y1="8.11594" x2="46.3351" y2="25.1985" gradientUnits="userSpaceOnUse">
<stop stop-color="#FFF7B3"/>
<stop offset="0.255" stop-color="#FEFFEB"/>
<stop offset="0.495" stop-color="#F4DD6A"/>
<stop offset="0.73" stop-color="#FFFEC2"/>
<stop offset="1" stop-color="#FFB726"/>
</linearGradient>
</defs>
</svg>
