<svg width="154" height="148" viewBox="0 0 154 148" fill="none" xmlns="http://www.w3.org/2000/svg">
<g clip-path="url(#clip0_67_358)">
<path d="M76.1175 135.777C76.1175 135.777 74.1719 136.909 77.504 137.291C81.5413 137.752 83.6045 137.686 88.0524 136.845C88.0524 136.845 89.2242 137.578 90.8576 138.213C80.883 142.486 68.2841 137.965 76.1175 135.777ZM74.898 130.2C74.898 130.2 72.7153 131.815 76.0502 132.161C80.363 132.606 83.7681 132.642 89.6634 131.508C89.6634 131.508 90.4768 132.334 91.7579 132.786C79.7006 136.312 66.2711 133.063 74.898 130.2Z" fill="#BCBCBC"/>
<path d="M85.1724 120.737C87.6315 123.568 84.5275 126.112 84.5275 126.112C84.5275 126.112 90.7676 122.892 87.9025 118.857C85.2255 115.096 83.1733 113.228 94.2838 106.784C94.2838 106.784 76.8435 111.139 85.1724 120.737Z" fill="white"/>
<path d="M98.3633 139.903C98.3633 139.903 99.8036 141.09 96.7764 142.008C91.0208 143.752 72.816 144.277 67.76 142.078C65.9433 141.287 69.3513 140.19 70.4235 139.959C71.5414 139.717 72.1797 139.761 72.1797 139.761C70.1582 138.338 59.1139 142.557 66.5706 143.767C86.9047 147.063 103.637 142.282 98.3633 139.903ZM77.0538 124.42C77.0538 124.42 67.7946 126.619 73.7751 127.419C76.3007 127.757 81.3331 127.679 86.0239 127.286C89.8564 126.964 93.7023 126.276 93.7023 126.276C93.7023 126.276 92.3521 126.855 91.3742 127.522C81.9698 129.996 63.8067 128.844 69.0362 126.315C73.4572 124.176 77.0538 124.42 77.0538 124.42ZM93.6639 133.704C103.223 128.738 98.8028 123.965 95.7177 124.608C94.9634 124.765 94.6251 124.902 94.6251 124.902C94.6251 124.902 94.9059 124.462 95.4414 124.272C101.544 122.128 106.237 130.6 93.4729 133.956C93.4729 133.955 93.6194 133.822 93.6639 133.704Z" fill="#BCBCBC"/>
<path d="M87.9011 96.3777C87.9011 96.3777 93.1939 101.674 82.8798 109.815C74.6084 116.348 80.9937 120.072 82.8769 124.328C78.0482 119.972 74.5063 116.137 76.8821 112.567C80.3709 107.329 90.0361 104.789 87.9011 96.3777Z" fill="white"/>
<path d="M77.9955 147.164C87.1689 147.751 101.26 146.838 101.593 142.497C101.593 142.497 100.952 144.142 94.0109 145.448C86.1803 146.922 76.5204 146.75 70.793 145.805C70.793 145.805 71.9664 146.777 77.9955 147.164Z" fill="#BCBCBC"/>
</g>
<g clip-path="url(#clip1_67_358)">
<path d="M109.839 16.7643C109.838 15.8292 109.638 15.0027 109.234 14.2934C108.836 13.5959 108.241 13.0112 107.443 12.549C100.854 8.74983 94.259 4.9623 87.6724 1.15929C85.8967 0.134061 84.1751 0.171374 82.4123 1.21149C79.7898 2.75814 66.6597 10.2806 62.7469 12.5468C61.1357 13.4797 60.3515 14.9072 60.3511 16.7624C60.3486 24.403 60.3511 32.0433 60.3486 39.6839C60.3486 40.5983 60.5406 41.409 60.9273 42.1077C61.3248 42.8263 61.9281 43.4269 62.7448 43.8996C66.6578 46.1659 79.7896 53.688 82.4115 55.2348C84.1749 56.2753 85.8967 56.3126 87.673 55.287C94.2598 51.4838 100.855 47.6964 107.445 43.8973C108.262 43.4248 108.865 42.8237 109.263 42.1057C109.649 41.407 109.841 40.5966 109.841 39.6815C109.841 39.6815 109.841 24.405 109.839 16.7643Z" fill="#626262"/>
<path d="M85.1704 28.149L60.9268 42.1078C61.3244 42.8264 61.9278 43.4271 62.7445 43.8998C66.6575 46.166 79.7892 53.6881 82.4112 55.235C84.1746 56.2755 85.8964 56.3128 87.6727 55.2872C94.2594 51.484 100.855 47.6966 107.445 43.8975C108.262 43.425 108.865 42.8239 109.262 42.1059L85.1704 28.149Z" fill="#494949"/>
<path d="M77.9902 32.2837C79.401 34.7464 82.0529 36.4075 85.0951 36.4075C88.1561 36.4075 90.8231 34.7255 92.2267 32.2362L85.1709 28.149L77.9902 32.2837Z" fill="#949494"/>
<path d="M109.839 16.7644C109.839 15.8292 109.638 15.0027 109.234 14.2934L85.1709 28.1488L109.263 42.1057C109.649 41.407 109.841 40.5966 109.841 39.6816C109.841 39.6816 109.841 24.405 109.839 16.7644Z" fill="#848484"/>
<path d="M108.514 29.1464H106.631V31.0295H104.748V29.1464H102.866V27.2642H104.748V25.3815H106.631V27.2642H108.514V29.1464ZM85.095 11.7875C91.1143 11.7875 96.3774 15.0238 99.241 19.8511L99.3268 19.9978L92.1734 24.1171C90.7557 21.6794 88.1177 20.039 85.095 20.039C80.5749 20.039 76.9107 23.7032 76.9107 28.2231C76.9092 29.6477 77.2814 31.0478 77.9901 32.2836C79.4008 34.7463 82.0527 36.4074 85.095 36.4074C88.1223 36.4074 90.7644 34.7621 92.18 32.3178L92.2265 32.2361L99.3695 36.3745C96.5372 41.3232 91.2056 44.6589 85.095 44.6589C78.9956 44.6589 73.6722 41.3365 70.8361 36.4023C69.4514 33.9936 68.6592 31.201 68.6592 28.2231C68.6592 19.1462 76.0175 11.7875 85.095 11.7875ZM99.762 25.3813V27.264H101.644V29.1464H99.762V31.0295H97.8793V29.1464H95.9967V27.2642H97.8793V25.3815L99.762 25.3813Z" fill="white"/>
</g>
<g clip-path="url(#clip2_67_358)">
<path d="M118.785 58.8466H167.003V107.065H118.785V58.8466Z" fill="#D1D1D1"/>
<path d="M151.174 96.5171C151.585 97.3511 152.224 98.0521 153.016 98.5395C153.808 99.0269 154.721 99.2809 155.651 99.2724C157.528 99.2724 158.729 98.3339 158.729 97.0337C158.729 95.4839 157.496 94.9294 155.429 94.0253L154.296 93.5397C151.024 92.1465 148.854 90.402 148.854 86.7134C148.854 83.3157 151.437 80.7274 155.489 80.7274C156.801 80.6329 158.112 80.9266 159.257 81.5718C160.403 82.2171 161.334 83.1853 161.933 84.3558L158.391 86.6204C158.16 86.04 157.758 85.5435 157.239 85.1967C156.72 84.8498 156.107 84.6689 155.482 84.6779C155.21 84.6506 154.935 84.6804 154.674 84.7653C154.414 84.8503 154.174 84.9885 153.97 85.1713C153.766 85.354 153.603 85.5773 153.49 85.8267C153.377 86.0762 153.317 86.3465 153.314 86.6204C153.314 87.9791 154.156 88.5301 156.101 89.3757L157.234 89.8613C161.084 91.5128 163.261 93.1952 163.261 96.9786C163.261 101.058 160.056 103.293 155.753 103.293C154.076 103.399 152.405 103.018 150.94 102.196C149.475 101.374 148.279 100.146 147.496 98.6594L151.174 96.5171ZM135.167 96.9098C135.878 98.172 136.526 99.2397 138.083 99.2397C139.571 99.2397 140.511 98.6577 140.511 96.3931V80.9857H145.042V96.4534C145.042 101.144 142.286 103.28 138.276 103.28C136.858 103.357 135.45 103.004 134.237 102.266C133.024 101.529 132.062 100.441 131.479 99.1467L135.167 96.9098Z" fill="black"/>
</g>
<g clip-path="url(#clip3_67_358)">
<path d="M27.1288 55.4174C13.6664 55.4174 14.507 61.2555 14.507 61.2555L14.5219 67.304H27.3689V69.1199H9.41931C9.41931 69.1199 0.804688 68.1429 0.804688 81.7264C0.804688 95.3103 8.32374 94.8286 8.32374 94.8286H12.8111V88.5251C12.8111 88.5251 12.5692 81.006 20.2101 81.006H32.952C32.952 81.006 40.1108 81.1217 40.1108 74.0873V62.4564C40.1108 62.4564 41.198 55.4174 27.1288 55.4174ZM20.045 59.4849C20.3486 59.4846 20.6493 59.5442 20.9298 59.6602C21.2103 59.7763 21.4652 59.9465 21.6799 60.1612C21.8945 60.3758 22.0648 60.6307 22.1808 60.9113C22.2969 61.1918 22.3565 61.4924 22.3562 61.796C22.3565 62.0996 22.2969 62.4003 22.1808 62.6808C22.0648 62.9613 21.8945 63.2162 21.6799 63.4309C21.4652 63.6455 21.2103 63.8158 20.9298 63.9318C20.6493 64.0479 20.3486 64.1075 20.045 64.1072C19.7414 64.1075 19.4408 64.0479 19.1603 63.9318C18.8797 63.8158 18.6249 63.6455 18.4102 63.4309C18.1955 63.2162 18.0253 62.9613 17.9092 62.6808C17.7932 62.4003 17.7336 62.0996 17.7339 61.796C17.7336 61.4924 17.7932 61.1918 17.9092 60.9113C18.0253 60.6307 18.1955 60.3758 18.4102 60.1612C18.6249 59.9465 18.8797 59.7763 19.1603 59.6602C19.4408 59.5442 19.7414 59.4846 20.045 59.4849Z" fill="url(#paint0_linear_67_358)"/>
<path d="M27.5114 108.172C40.9738 108.172 40.1333 102.334 40.1333 102.334L40.1183 96.2857H27.2711V94.4698H45.2207C45.2207 94.4698 53.8353 95.4468 53.8353 81.8628C53.8353 68.2791 46.3163 68.7609 46.3163 68.7609H41.8289V75.0641C41.8289 75.0641 42.0709 82.5832 34.4299 82.5832H21.688C21.688 82.5832 14.5292 82.4675 14.5292 89.5021V101.133C14.5292 101.133 13.4422 108.172 27.5112 108.172M34.595 104.105C34.2914 104.105 33.9908 104.046 33.7102 103.93C33.4297 103.814 33.1748 103.643 32.9601 103.429C32.7455 103.214 32.5753 102.959 32.4592 102.679C32.3432 102.398 32.2836 102.097 32.2838 101.794C32.2835 101.49 32.3431 101.19 32.4591 100.909C32.5752 100.628 32.7454 100.374 32.9601 100.159C33.1747 99.9442 33.4296 99.7739 33.7102 99.6578C33.9907 99.5418 34.2914 99.4822 34.595 99.4825C34.8986 99.4822 35.1992 99.5418 35.4798 99.6578C35.7603 99.7739 36.0152 99.9441 36.2298 100.159C36.4445 100.373 36.6147 100.628 36.7308 100.909C36.8468 101.189 36.9064 101.49 36.9062 101.794C36.9064 102.097 36.8468 102.398 36.7308 102.678C36.6147 102.959 36.4445 103.214 36.2298 103.428C36.0152 103.643 35.7603 103.813 35.4798 103.929C35.1992 104.045 34.8986 104.105 34.595 104.105Z" fill="url(#paint1_linear_67_358)"/>
</g>
<defs>
<linearGradient id="paint0_linear_67_358" x1="510.425" y1="529.914" x2="3138.45" y2="3131.72" gradientUnits="userSpaceOnUse">
<stop stop-color="#747474"/>
<stop offset="1" stop-color="#707070"/>
</linearGradient>
<linearGradient id="paint1_linear_67_358" x1="766.729" y1="879.845" x2="3588.93" y2="3547.76" gradientUnits="userSpaceOnUse">
<stop stop-color="white"/>
<stop offset="1" stop-color="#C3C3C3"/>
</linearGradient>
<clipPath id="clip0_67_358">
<rect width="52.2422" height="52.2422" fill="white" transform="translate(58.5156 95.7297)"/>
</clipPath>
<clipPath id="clip1_67_358">
<rect width="49.4926" height="55.6792" fill="white" transform="translate(61.2656 0.410645)"/>
</clipPath>
<clipPath id="clip2_67_358">
<rect width="55.1063" height="55.1063" fill="white" transform="translate(118.091 55.4024)"/>
</clipPath>
<clipPath id="clip3_67_358">
<rect width="53.1587" height="52.9511" fill="white" transform="translate(0.774414 55.4024)"/>
</clipPath>
</defs>
</svg>
